<svg xmlns="https://www.w3.org/2000/svg" xmlns:xlink="https://www.w3.org/1999/xlink" width="852.44" height="728.16" viewBox="0 0 852.44 728.16"><defs><style>.cls-1,.cls-10,.cls-12{fill:none;}.cls-2{isolation:isolate;}.cls-3{fill:#e7e7e7;}.cls-4{fill:#f0f0f0;}.cls-5{fill:#fff;}.cls-6{fill:#e1e1e1;}.cls-7{fill:#f5f5f5;}.cls-8{fill:#fafafa;}.cls-9{fill:#52d2bc;}.cls-10{stroke:#00ad9f;}.cls-10,.cls-12{stroke-linecap:round;stroke-linejoin:round;}.cls-11{fill:#5193f4;}.cls-12{stroke:#0b43a4;opacity:0.31;}.cls-13{fill:#5084da;}.cls-14{fill:#0056ec;}.cls-15{fill:#605aca;opacity:0.5;mix-blend-mode:multiply;}.cls-16{fill:#c8eefb;}.cls-17{clip-path:url(#clip-path);}.cls-18{fill:#ff8b7b;}.cls-19{fill:#1a2e35;}.cls-20{fill:#ff5551;}.cls-21{opacity:0.2;}.cls-22,.cls-25,.cls-26{fill:#007cff;}.cls-23{opacity:0.4;}.cls-24,.cls-26{opacity:0.3;}.cls-25{opacity:0.6;}</style><clipPath id="clip-path" transform="translate(-84 -156.41)"><circle class="cls-1" cx="582.66" cy="311.61" r="28.36"/></clipPath></defs><title>forgot password</title><g class="cls-2"><g id="Layer_1" data-name="Layer 1"><polygon class="cls-3" points="314.58 480.34 167.09 480.34 158.14 377.06 305.63 377.06 314.58 480.34"/><polygon class="cls-4" points="322.22 480.34 174.74 480.34 165.78 377.06 313.27 377.06 322.22 480.34"/><polygon class="cls-5" points="194.89 458.16 189.98 399.23 293.11 399.23 298.02 458.16 194.89 458.16"/><rect class="cls-3" x="330.44" y="480.34" width="17.3" height="192.64"/><rect class="cls-4" x="341.18" y="480.34" width="12.02" height="192.64"/><rect class="cls-4" x="269.7" y="636.75" width="167.5" height="21.26" transform="translate(622.91 1138.36) rotate(180)"/><rect class="cls-3" x="174.32" y="501.6" width="17.31" height="171.38"/><rect class="cls-4" x="185.07" y="501.6" width="12.02" height="171.38"/><rect class="cls-3" x="51.14" y="501.6" width="17.31" height="171.38"/><rect class="cls-4" x="61.89" y="501.6" width="12.02" height="171.38"/><rect class="cls-3" x="220.92" y="501.6" width="17.31" height="171.38"/><rect class="cls-4" x="231.67" y="501.6" width="12.02" height="171.38"/><rect class="cls-3" x="51.14" y="480.34" width="134.56" height="21.26"/><rect class="cls-6" x="166.98" width="520.49" height="289.77"/><rect class="cls-7" x="169.6" width="546.45" height="289.77"/><rect class="cls-5" x="390.87" y="37" width="271.91" height="528.59" transform="translate(744.12 -381.95) rotate(90)"/><polygon class="cls-7" points="392.56 280.84 492.35 8.93 327.65 8.93 227.85 280.84 392.56 280.84"/><polygon class="cls-7" points="551.09 280.84 650.89 8.93 526.65 8.93 426.85 280.84 551.09 280.84"/><rect class="cls-3" x="808.2" y="396.24" width="44.24" height="276.75"/><polygon class="cls-8" points="840.81 672.99 852.45 672.99 852.45 651.68 828.61 651.68 840.81 672.99"/><rect class="cls-3" x="400.26" y="396.24" width="44.24" height="276.75"/><rect class="cls-8" x="434.35" y="396.24" width="418.09" height="271"/><path class="cls-3" d="M928.53,640.09H526.27V563.55H928.53Zm-400-2.22H926.31v-72.1H528.49Z" transform="translate(-84 -156.41)"/><path class="cls-3" d="M857.72,600.71H604.89c-11.74,0-23-9.47-31-26l-.77-1.59H889.49l-.76,1.59C880.76,591.24,869.46,600.71,857.72,600.71Zm-281-25.35c7.51,14.72,17.73,23.13,28.21,23.13H857.72c10.48,0,20.7-8.41,28.22-23.13Z" transform="translate(-84 -156.41)"/><polygon class="cls-8" points="445.99 672.99 434.35 672.99 434.35 651.68 458.19 651.68 445.99 672.99"/><path class="cls-3" d="M928.53,726.42H526.27V649.88H928.53Zm-400-2.22H926.31V652.1H528.49Z" transform="translate(-84 -156.41)"/><path class="cls-3" d="M857.72,687H604.89c-11.74,0-23-9.47-31-26l-.77-1.6H889.49l-.76,1.6C880.76,677.57,869.46,687,857.72,687Zm-281-25.35c7.51,14.72,17.73,23.13,28.21,23.13H857.72c10.48,0,20.7-8.41,28.22-23.13Z" transform="translate(-84 -156.41)"/><path class="cls-3" d="M928.53,812.75H526.27V736.21H928.53Zm-400-2.22H926.31v-72.1H528.49Z" transform="translate(-84 -156.41)"/><path class="cls-3" d="M857.72,773.37H604.89c-11.74,0-23-9.47-31-26l-.77-1.6H889.49l-.76,1.6C880.76,763.9,869.46,773.37,857.72,773.37ZM576.68,748c7.51,14.72,17.73,23.13,28.21,23.13H857.72c10.48,0,20.7-8.41,28.22-23.13Z" transform="translate(-84 -156.41)"/><polygon class="cls-3" points="148.04 432.84 148.04 438.21 144.6 438.21 141.76 480.34 99.93 480.34 97.09 438.21 93.65 438.21 93.65 432.84 148.04 432.84"/><path class="cls-3" d="M218.27,484.7c-3.44-25.09-37.3-32.26-80.28-33.18-40.89-.88-54-15.34-54-15.34s.13,58.59,59.06,79.8C199,536.13,221.72,509.84,218.27,484.7Z" transform="translate(-84 -156.41)"/><path class="cls-3" d="M197.38,541.59c.72-10.32,17.2-29.29,56.83-20.67,28.67,6.24,39.32-8.62,39.32-8.62s-2.65,41.94-45.76,54.54C206.84,578.82,196.12,559.74,197.38,541.59Z" transform="translate(-84 -156.41)"/><path class="cls-3" d="M206.42,605.07a1.51,1.51,0,0,0,1.17-.54c2.88-3.4.52-11.53-2.73-22.79-4.17-14.44-9.37-32.42-5-45.47a185.13,185.13,0,0,1,8.53-20.16c6.22-13.15,11.59-24.52,7.11-36.39a1.53,1.53,0,1,0-2.86,1.08c4,10.66-.85,21-7,34A189,189,0,0,0,197,535.29c-4.7,14,.64,32.45,4.93,47.3,2.54,8.76,5.15,17.82,3.34,20a1.52,1.52,0,0,0,1.16,2.51Z" transform="translate(-84 -156.41)"/><path class="cls-9" d="M590.34,549a38,38,0,0,0-28.75-12.9c-8,.11-15.86,2.77-23.85,2.28a30.48,30.48,0,0,1-28.33-34.82c.93-6.33,4.24-12.68,10-15.51a19.24,19.24,0,0,1,10.2-1.62,28.91,28.91,0,0,1,9.16,2.45c6.62,2.94,12.39,8.13,17,13.85,4.18,5.2,13.73,12.86,20.19,17.8,3.79,2.88,6.51,4.84,6.51,4.84C587,529.62,587.22,543.67,590.34,549Z" transform="translate(-84 -156.41)"/><path class="cls-10" d="M520.21,505.86c20.12,5.73,42.33,13.85,58,27.66" transform="translate(-84 -156.41)"/><path class="cls-11" d="M649.83,503a25.31,25.31,0,0,1-2.6,9.79,21.94,21.94,0,0,1-4.35,5.55,34.61,34.61,0,0,1-2.79,2.37,41,41,0,0,1-12.21,6.4c-6.29,2-13,2.37-18.81,5.92a22.84,22.84,0,0,0-9.42,11.8l0-5.63c.62-6.24,1.25-12.59,3.58-18.55a52.66,52.66,0,0,1,6-10.88A75.56,75.56,0,0,1,622.39,495c4.06-3.43,8.71-6.34,13.68-7.08s10.23,1.09,12.5,5.46C650,496.2,650.14,499.68,649.83,503Z" transform="translate(-84 -156.41)"/><path class="cls-12" d="M603.11,534a46.76,46.76,0,0,1,17.1-20.64c4.65-3.05,9.74-5.13,14.48-8s9.3-6.74,11.52-11.95" transform="translate(-84 -156.41)"/><path class="cls-9" d="M595.37,539.1c8.85-8.78,21.4-12.8,33.74-14.57,10.29-1.48,21.1-1.53,30.72,2.39,3,1.23,6,3,7.77,5.67s2,6.66-.14,9.08c-1.84,2-4.82,2.54-7.57,2.64-9,.32-17.87-2.3-26.72-4.16-15.22-3.19-31.78-4-45.61,3.14" transform="translate(-84 -156.41)"/><path class="cls-10" d="M606.41,534.48c18.31-7.72,44.76-5.24,56.29,2.75" transform="translate(-84 -156.41)"/><path class="cls-13" d="M493.27,508c-5.14-2-12-2.86-15.31,1.58-2.76,3.71-1.33,9,.58,13.2,1.61,3.56,3.65,7.18,7,9.12a20,20,0,0,0,7.68,2,184.64,184.64,0,0,0,22.29,1.29,46.75,46.75,0,0,1,26.23,8.88C532.63,527.05,510.58,514.82,493.27,508Z" transform="translate(-84 -156.41)"/><path class="cls-12" d="M484.25,519.06c6.54.28,13.15.74,19.43,2.59s31.14,13.25,35,18.07" transform="translate(-84 -156.41)"/><rect class="cls-14" x="470.36" y="341.76" width="56.59" height="38.92"/><rect class="cls-15" x="470.36" y="341.76" width="56.59" height="14.1"/><path class="cls-14" d="M640.09,536.48H525.23a6.57,6.57,0,1,0,0,13.13H640.09a6.57,6.57,0,0,0,6.56-6.57h0A6.56,6.56,0,0,0,640.09,536.48Z" transform="translate(-84 -156.41)"/><path class="cls-15" d="M646.66,543.05a6.57,6.57,0,0,1-6.57,6.56H525.23a6.57,6.57,0,0,1-6.57-6.56,5.67,5.67,0,0,1,.21-1.6,6.53,6.53,0,0,0,6.36,5H640.09a6.54,6.54,0,0,0,6.36-5A6.05,6.05,0,0,1,646.66,543.05Z" transform="translate(-84 -156.41)"/><rect class="cls-5" x="317.58" y="105.29" width="362.16" height="241.9" rx="4.03"/><path class="cls-14" d="M759.71,264.58a1.15,1.15,0,0,1,1.15,1.15V499.57a1.15,1.15,0,0,1-1.15,1.15H405.61a1.15,1.15,0,0,1-1.16-1.15V265.73a1.15,1.15,0,0,1,1.16-1.15h354.1m0-5.76H405.61a6.91,6.91,0,0,0-6.91,6.91V499.57a6.91,6.91,0,0,0,6.91,6.91h354.1a6.91,6.91,0,0,0,6.9-6.91V265.73a6.9,6.9,0,0,0-6.9-6.91Z" transform="translate(-84 -156.41)"/><path class="cls-14" d="M766.61,499.1V476.23H398.7V499.1a7.79,7.79,0,0,0,7.79,7.79H758.82A7.79,7.79,0,0,0,766.61,499.1Z" transform="translate(-84 -156.41)"/><circle class="cls-16" cx="498.66" cy="155.2" r="28.36"/><g class="cls-17"><path class="cls-13" d="M593.62,305.14a11,11,0,1,1-11-11A11,11,0,0,1,593.62,305.14Zm5.57,46.36V330.15a11.45,11.45,0,0,0-11.45-11.45H577.57a11.45,11.45,0,0,0-11.45,11.45V351.5a3.17,3.17,0,0,0,3.17,3.18H596A3.17,3.17,0,0,0,599.19,351.5Z" transform="translate(-84 -156.41)"/></g><path class="cls-16" d="M650.51,372.23H514.81A11.23,11.23,0,0,1,503.58,361h0a11.23,11.23,0,0,1,11.23-11.23h135.7A11.22,11.22,0,0,1,661.73,361h0A11.22,11.22,0,0,1,650.51,372.23Z" transform="translate(-84 -156.41)"/><path class="cls-13" d="M645.8,363.94H519.52a2.93,2.93,0,0,1-2.93-2.93h0a2.93,2.93,0,0,1,2.93-2.93H645.8a2.93,2.93,0,0,1,2.93,2.93h0A2.93,2.93,0,0,1,645.8,363.94Z" transform="translate(-84 -156.41)"/><path class="cls-16" d="M650.62,412.59H514.91a11.22,11.22,0,0,1-11.22-11.22h0a11.22,11.22,0,0,1,11.22-11.22H650.62a11.22,11.22,0,0,1,11.22,11.22h0A11.22,11.22,0,0,1,650.62,412.59Z" transform="translate(-84 -156.41)"/><path class="cls-13" d="M518.39,404.5h0a2.93,2.93,0,0,1-2.93-2.93h0a2.93,2.93,0,0,1,2.93-2.93h0a2.93,2.93,0,0,1,2.93,2.93h0A2.94,2.94,0,0,1,518.39,404.5ZM530,401.57h0a2.93,2.93,0,0,0-2.93-2.93h0a2.93,2.93,0,0,0-2.93,2.93h0a2.93,2.93,0,0,0,2.93,2.93h0A2.93,2.93,0,0,0,530,401.57Zm8.71,0h0a2.93,2.93,0,0,0-2.93-2.93h0a2.93,2.93,0,0,0-2.93,2.93h0a2.94,2.94,0,0,0,2.93,2.93h0A2.93,2.93,0,0,0,538.74,401.57Zm8.72,0h0a2.93,2.93,0,0,0-2.93-2.93h0a2.93,2.93,0,0,0-2.93,2.93h0a2.93,2.93,0,0,0,2.93,2.93h0A2.93,2.93,0,0,0,547.46,401.57Zm8.71,0h0a2.93,2.93,0,0,0-2.93-2.93h0a2.93,2.93,0,0,0-2.93,2.93h0a2.93,2.93,0,0,0,2.93,2.93h0A2.93,2.93,0,0,0,556.17,401.57Zm8.71,0h0a2.93,2.93,0,0,0-2.93-2.93h0a2.93,2.93,0,0,0-2.93,2.93h0A2.94,2.94,0,0,0,562,404.5h0A2.93,2.93,0,0,0,564.88,401.57Zm8.72,0h0a2.93,2.93,0,0,0-2.93-2.93h0a2.93,2.93,0,0,0-2.93,2.93h0a2.93,2.93,0,0,0,2.93,2.93h0A2.93,2.93,0,0,0,573.6,401.57Z" transform="translate(-84 -156.41)"/><path class="cls-13" d="M601.93,454.87H563.38a11.22,11.22,0,0,1-11.22-11.22h0a11.22,11.22,0,0,1,11.22-11.22h38.55a11.22,11.22,0,0,1,11.22,11.22h0A11.22,11.22,0,0,1,601.93,454.87Z" transform="translate(-84 -156.41)"/><path class="cls-18" d="M317.38,442c-2.44,3.9-4.45,7.65-6.55,11.54s-4,7.82-5.81,11.81a169.25,169.25,0,0,0-9.33,25.12c-.33,1.08-.57,2.23-.85,3.36l-.4,1.69-.2.85-.23,1.39a24.2,24.2,0,0,0,.57,9.42,53,53,0,0,0,5.69,13.64,109.05,109.05,0,0,0,16.25,21.36l7.71-5.83a204.76,204.76,0,0,1-10.31-22,46.39,46.39,0,0,1-2.8-10.31,8.22,8.22,0,0,1,.15-3.23l.73-2.23c.3-.92.56-1.84.93-2.76a201.54,201.54,0,0,1,9.64-22.11c3.6-7.28,7.58-14.69,11.51-21.61Z" transform="translate(-84 -156.41)"/><path class="cls-18" d="M322.27,533.69l8.4,4.46L321,549.45s-6-4.08-6.3-10.3Z" transform="translate(-84 -156.41)"/><polygon class="cls-18" points="257.98 388.7 247.63 396.91 237.02 393.04 246.67 381.73 257.98 388.7"/><path class="cls-19" d="M377.31,382.11c.21,1,.91,1.73,1.58,1.6s1-1.07.83-2.09-.92-1.73-1.58-1.6S377.1,381.09,377.31,382.11Z" transform="translate(-84 -156.41)"/><path class="cls-20" d="M378.13,383.86s3.5,5.4,6.63,7.71c-1.46,2.05-4.68,1.9-4.68,1.9Z" transform="translate(-84 -156.41)"/><path class="cls-18" d="M381.42,419.74l-.07-12-15.88,1.92s.27,10.31,9.14,13.34Z" transform="translate(-84 -156.41)"/><polygon class="cls-18" points="292.86 242.71 281.68 245.92 281.47 253.26 297.35 251.34 292.86 242.71"/><path class="cls-21" d="M365.68,402.33l11.17-3.22,2.18,4.17a17.81,17.81,0,0,1-10.32,15.52,17.51,17.51,0,0,1-3.24-9.13Z" transform="translate(-84 -156.41)"/><path class="cls-19" d="M372.44,377.22a.67.67,0,0,1-.42-.16.61.61,0,0,1,0-.86,6,6,0,0,1,5.19-2,.6.6,0,0,1,.49.7.61.61,0,0,1-.7.5h0a4.87,4.87,0,0,0-4.09,1.64A.6.6,0,0,1,372.44,377.22Z" transform="translate(-84 -156.41)"/><path class="cls-18" d="M349.07,400.62c1.84,9.41,2.95,22.45-3.63,28.74,0,0,2.57,9.54,20.06,9.54,19.24,0,9.26-8.38,9.26-8.38-8-2.48-7.93-11.58-6.1-18.9Z" transform="translate(-84 -156.41)"/><path class="cls-22" d="M341.84,435.65c-1.72-2.42-1.65-10.09.18-11.44,3-2.18,15.58-2.68,32.59,1.23-1.83,7.42,2.09,11.31,2.09,11.31Z" transform="translate(-84 -156.41)"/><path class="cls-22" d="M284.66,869.94c1.3.27,2.59.35,3.21-.18a1.25,1.25,0,0,0,.29-1.42,1.4,1.4,0,0,0-.78-.89c-1.74-.83-5.73.79-5.9.86a.32.32,0,0,0-.19.28.3.3,0,0,0,.17.28A16.56,16.56,0,0,0,284.66,869.94Zm2.1-2.06a1.9,1.9,0,0,1,.36.12.79.79,0,0,1,.46.52c.16.55,0,.72-.11.78-.69.58-3.26,0-5.07-.68A9.89,9.89,0,0,1,286.76,867.88Z" transform="translate(-84 -156.41)"/><path class="cls-22" d="M281.53,868.89h.15c1.46-.43,4.57-2.64,4.61-4.1a1,1,0,0,0-.78-1,1.67,1.67,0,0,0-1.36.11c-1.71.87-2.8,4.44-2.85,4.59a.3.3,0,0,0,.08.3A.28.28,0,0,0,281.53,868.89Zm3.64-4.54.14,0c.37.13.37.32.37.4,0,.86-2.08,2.6-3.59,3.3.38-1,1.24-3.06,2.34-3.62A1,1,0,0,1,285.17,864.35Z" transform="translate(-84 -156.41)"/><path class="cls-22" d="M379.66,872.09c1.65,0,3.25-.22,3.78-1a1.14,1.14,0,0,0,0-1.33,1.53,1.53,0,0,0-1-.71c-2.14-.58-6.64,2-6.83,2.09a.3.3,0,0,0-.15.31.3.3,0,0,0,.25.25A21.87,21.87,0,0,0,379.66,872.09Zm2-2.49a2.12,2.12,0,0,1,.59.07.9.9,0,0,1,.6.42c.21.38.14.57.06.68-.6.83-3.85.85-6.25.51C377.9,870.67,380.2,869.6,381.7,869.6Z" transform="translate(-84 -156.41)"/><path class="cls-22" d="M375.78,871.74l.12,0c1.55-.7,4.63-3.48,4.39-4.93-.05-.34-.29-.77-1.13-.85a2.19,2.19,0,0,0-1.69.52c-1.64,1.34-2,4.81-2,5a.3.3,0,0,0,.13.27A.28.28,0,0,0,375.78,871.74Zm3.13-5.22h.19c.55.06.58.27.59.34.14.88-1.95,3.06-3.53,4,.16-1,.62-3.09,1.7-4A1.59,1.59,0,0,1,378.91,866.52Z" transform="translate(-84 -156.41)"/><polygon class="cls-18" points="277.63 715.02 290.49 715.02 291.77 685.23 278.91 685.23 277.63 715.02"/><polygon class="cls-18" points="183.19 709.07 195.76 711.79 208.39 684.03 195.81 681.31 183.19 709.07"/><path class="cls-19" d="M281,866.94l-14.13-3.06a1.12,1.12,0,0,0-1.25.63l-4.91,10.64a1.89,1.89,0,0,0,1.36,2.63c4.95,1,7.41,1.21,13.62,2.56,3.83.83,12.45,2.93,17.73,4.07s7.1-3.93,5-4.87c-9.23-4.21-13.09-7.93-15.58-11.39A3.14,3.14,0,0,0,281,866.94Z" transform="translate(-84 -156.41)"/><path class="cls-19" d="M374.41,869.94H360.36a1.13,1.13,0,0,0-1.1.88l-2.54,11.44a1.87,1.87,0,0,0,1.85,2.29c5.07-.09,12.39-.38,18.77-.38,7.44,0,13.88.4,22.61.4,5.29,0,6.75-5.34,4.54-5.82-10.06-2.2-18.28-2.44-27-7.8A5.92,5.92,0,0,0,374.41,869.94Z" transform="translate(-84 -156.41)"/><path class="cls-22" d="M322.4,432.26c-12.06,2.77-22,33.55-22,33.55l24.22,18.46s8.88-8.38,12.84-23.78C341.6,444.36,334.73,429.44,322.4,432.26Z" transform="translate(-84 -156.41)"/><path class="cls-23" d="M322.4,432.26c-12.06,2.77-22,33.55-22,33.55l24.22,18.46s8.88-8.38,12.84-23.78C341.6,444.36,334.73,429.44,322.4,432.26Z" transform="translate(-84 -156.41)"/><path class="cls-18" d="M385.81,469c3,3.24,6,6.13,9.12,9.1q2.31,2.22,4.73,4.35l2.43,2.13.61.53c.3.25.66.55,1.05.85a15,15,0,0,0,3.53,2.09,11.92,11.92,0,0,0,4.45.92,10.89,10.89,0,0,0,3.84-.69,10.57,10.57,0,0,0,3.66-2.32,11,11,0,0,0,2.87-4.74,13,13,0,0,0,.52-2.72,17.18,17.18,0,0,0,0-3.27c-.09-.88-.21-1.64-.34-2.35a45.61,45.61,0,0,0-2.13-7.38,67.09,67.09,0,0,0-2.84-6.61c-1.16-2.33-2.28-4-3.4-6a150,150,0,0,0-15.46-21,141.74,141.74,0,0,0-18.75-17.78l-6.74,6.93c4.73,6.33,9.38,13.11,13.68,19.8a214.73,214.73,0,0,1,11.7,20.57c.79,1.72,1.77,3.61,2.32,5.05a50.46,50.46,0,0,1,1.71,4.94,34,34,0,0,1,1,4.62,6.19,6.19,0,0,1,.06.72c0,.14,0,.22,0-.17a5.66,5.66,0,0,1,.23-1.2,8,8,0,0,1,2.11-3.4,8.78,8.78,0,0,1,6.1-2.47,7.69,7.69,0,0,1,2.95.57,5.71,5.71,0,0,1,.9.45L415,470l-2.19-2-4.38-4.09c-2.89-2.73-5.8-5.64-8.55-8.34Z" transform="translate(-84 -156.41)"/><path class="cls-21" d="M332.74,454.9c-6.55,6.49-8.69,18.29-9.2,28.55l1.07.83s8.9-8.39,12.86-23.79c.24-1,.45-1.93.63-2.87Z" transform="translate(-84 -156.41)"/><path class="cls-22" d="M398.61,445.17c2.63,13.9,4.27,42.44-3.36,99H326.43c-.48-10.56,6.16-62.1-4-111.88a180.13,180.13,0,0,1,23-2.9c8.79-.43,21.52-.71,29.25,0,3.23.29,6.4.76,9.22,1.26A18.21,18.21,0,0,1,398.61,445.17Z" transform="translate(-84 -156.41)"/><path class="cls-23" d="M398.61,445.17c2.63,13.9,4.27,42.44-3.36,99H326.43c-.48-10.56,6.16-62.1-4-111.88a180.13,180.13,0,0,1,23-2.9c8.79-.43,21.52-.71,29.25,0,3.23.29,6.4.76,9.22,1.26A18.21,18.21,0,0,1,398.61,445.17Z" transform="translate(-84 -156.41)"/><path class="cls-21" d="M388.08,465.71l12.43-3c.39,7.53.42,16.87-.14,28.41C394.64,484.63,387.34,474.47,388.08,465.71Z" transform="translate(-84 -156.41)"/><polygon class="cls-21" points="291.77 685.23 291.11 700.59 278.24 700.59 278.9 685.23 291.77 685.23"/><polygon class="cls-21" points="195.81 681.32 208.39 684.04 201.87 698.35 189.29 695.62 195.81 681.32"/><path class="cls-18" d="M343,386.85c3.3,12.33,4.61,19.72,12.22,24.85,11.45,7.71,25.71-1.14,26.15-14.21.41-11.77-5.07-30-18.3-32.45A17.42,17.42,0,0,0,343,386.85Z" transform="translate(-84 -156.41)"/><path class="cls-19" d="M371.83,387.32c.61-1.65,3.46-14.4.78-17.71s-33.13-.93-37.63,3.5c-7.47,7.36-2.29,13.92,5.89,22.38,6.15,6.37,6.39,13.55,9.49,14.6,5.44,1.85,13.87.11,15.56-5.69S371.83,387.32,371.83,387.32Z" transform="translate(-84 -156.41)"/><path class="cls-19" d="M338.67,358.62c10.76-4.59,30.95.48,41.84-2.14.39,5.64-3,14.69-13.91,17.12,0,0-15.47,3-27.44,2.53S329.53,362.51,338.67,358.62Z" transform="translate(-84 -156.41)"/><path class="cls-19" d="M337,373.5s-6.65.75-11.38-2.18C323.58,376.18,334.65,377.52,337,373.5Z" transform="translate(-84 -156.41)"/><path class="cls-18" d="M366,387.83a14.38,14.38,0,0,0,3.62,8.53c2.8,3.09,5.73,1.17,6.23-2.6.44-3.38-.48-9.07-3.91-10.78S365.73,384,366,387.83Z" transform="translate(-84 -156.41)"/><path class="cls-22" d="M370.83,544.14s-14.6,98.33-22.61,135.17c-8.78,40.34-55.86,173.81-55.86,173.81l-23-5S302.25,739.37,309.61,683c5.66-43.32,16.82-138.83,16.82-138.83Z" transform="translate(-84 -156.41)"/><path class="cls-19" d="M297.88,845.43c.1,0-4.29,8.33-4.29,8.33l-25.92-5.61,2.19-7.79Z" transform="translate(-84 -156.41)"/><path class="cls-24" d="M361.61,579.18c-16.89,3.31-15.1,66.27-13.07,98.66,4.87-22.9,12-66.94,16.87-98.21A5.78,5.78,0,0,0,361.61,579.18Z" transform="translate(-84 -156.41)"/><path class="cls-22" d="M395.25,544.14s1.77,96.2.37,135.44C394.16,720.4,379.91,854,379.91,854h-21.8s-.8-131.25-1.77-171.33C355.28,639,350,544.14,350,544.14Z" transform="translate(-84 -156.41)"/><path class="cls-19" d="M384.1,845.35c.1,0-1.23,9-1.23,9H356.36l-.72-8.08Z" transform="translate(-84 -156.41)"/><path class="cls-22" d="M371.64,449.39c-6.17,16.62,30.07,36.21,30.07,36.21l15.7-20.18s-10.47-20.83-23.32-30.23C378.22,423.59,376.33,436.73,371.64,449.39Z" transform="translate(-84 -156.41)"/><path class="cls-23" d="M371.64,449.39c-6.17,16.62,30.07,36.21,30.07,36.21l15.7-20.18s-10.47-20.83-23.32-30.23C378.22,423.59,376.33,436.73,371.64,449.39Z" transform="translate(-84 -156.41)"/><ellipse class="cls-22" cx="145.64" cy="124.66" rx="66.01" ry="42.07"/><path class="cls-5" d="M253.47,302.25a18.52,18.52,0,0,0,18.17-15.35,18.7,18.7,0,0,0-14.11-21.16h0a18.41,18.41,0,0,0-19.8,8.26l-42.38-8.74a6.62,6.62,0,0,0-7.76,4.56,6.38,6.38,0,0,0,4.88,7.88l1.11.23a1.12,1.12,0,0,1,.77.56,1.13,1.13,0,0,1,.06.95l-.74,1.95a2.89,2.89,0,0,0,1.12,3.51,3.59,3.59,0,0,1,1.65,2.59,2.83,2.83,0,0,0,2.2,2.54l.87.18a2.85,2.85,0,0,0,3-1.46,3.56,3.56,0,0,1,6.6,1.37,2.84,2.84,0,0,0,2.2,2.53l.86.18a2.84,2.84,0,0,0,3-1.46,3.57,3.57,0,0,1,2.55-1.72,2.91,2.91,0,0,0,2.43-2.79l.09-2.08a1.13,1.13,0,0,1,1.36-1.06l13.5,2.79a18.42,18.42,0,0,0,14.54,15.35A18.73,18.73,0,0,0,253.47,302.25Zm3.66-34.72a16.84,16.84,0,0,1,12.7,19.06,16.65,16.65,0,0,1-32.95-.95l-.07-.66L222,281.93a3,3,0,0,0-2.43.57,2.91,2.91,0,0,0-1.13,2.21l-.09,2.08a1.08,1.08,0,0,1-.87,1,5.34,5.34,0,0,0-3.86,2.61,1,1,0,0,1-1.07.59l-.86-.18a1,1,0,0,1-.75-1,5.39,5.39,0,0,0-10-2.07,1,1,0,0,1-1.07.59l-.87-.18a1,1,0,0,1-.76-1,5.35,5.35,0,0,0-2.49-3.93,1.09,1.09,0,0,1-.39-1.31l.75-1.94a3,3,0,0,0-.17-2.48,2.89,2.89,0,0,0-2-1.48l-1.11-.23a4.55,4.55,0,0,1-3.48-5.62,4.78,4.78,0,0,1,5.63-3.24l43.66,9,.33-.57a16.54,16.54,0,0,1,18.15-8Zm-3.68,28a11.83,11.83,0,1,0-2.39-.25h0A11.49,11.49,0,0,0,253.45,295.49Zm0-21.61a10.07,10.07,0,0,1,2,.21,9.88,9.88,0,1,1-4,19.36h0a9.89,9.89,0,0,1,2-19.57Z" transform="translate(-84 -156.41)"/><ellipse class="cls-25" cx="199.38" cy="177.57" rx="21.7" ry="13.83"/><ellipse class="cls-26" cx="233.9" cy="191.4" rx="8.91" ry="5.68"/></g></g></svg>