<svg id="Layer_1" data-name="Layer 1" xmlns="https://www.w3.org/2000/svg" width="887.59" height="729.53" viewBox="0 0 887.59 729.53"><defs><style>.cls-1{fill:#fafafa;}.cls-2{fill:#0056ec;}.cls-15,.cls-3,.cls-9{fill:none;stroke-miterlimit:10;}.cls-3{stroke:#b2b2b2;stroke-width:3px;stroke-dasharray:12.05 12.05;}.cls-4{fill:#2096ed;}.cls-5{fill:#f9d7a5;}.cls-6{fill:#fcdfae;}.cls-7{fill:#111;}.cls-8{fill:#095fad;}.cls-9{stroke:#fff;}.cls-10{fill:#474d56;}.cls-11{fill:#9297a0;}.cls-12{fill:#a0a0a0;}.cls-13{fill:#e2e2e2;}.cls-14{fill:#c9d4f2;}.cls-15{stroke:#f7f8f9;}.cls-16{fill:#007aff;}.cls-17{fill:#efc319;}.cls-18{fill:#f19b1f;}.cls-19{fill:#e64c3b;}.cls-20{fill:#2f2f39;}.cls-21{fill:#c03a2b;}.cls-22{fill:#f5d77f;}.cls-23{fill:#fff;}.cls-24{fill:#0059aa;}</style></defs><title>reset password</title><path class="cls-1" d="M941.15,401.72C954.52,426,974,449,975.64,476.35c2.7,44-40.21,77.19-57.75,118-21.54,50.07-3.48,109.06-22.54,160-13.82,36.94-47.71,66.44-87.54,76.2-29.85,7.32-61.24,4-92.06,4.32-87.49.85-174.64,31.1-260.95,17.37-42.61-6.79-82.9-24.1-125.71-29.65-51.33-6.66-111.15,1.39-147.84-33.49-51.25-48.75-13.2-138.37-51.67-196.84-12.38-18.84-32.34-33.57-39-54.86-7.81-24.89,4.85-51.41,20.58-72.62s35.18-40.75,43.7-65.42c7.73-22.41,3-46.76-6.51-68.54-14.57-33.35,26-109.85,106.46-104.11,36.88,2.63,53.49-40.1,94-51.94,46.32-13.56,104.49-2.66,138.62,8.69C522,195,564.91,201,584.8,171.59,612.87,130,696.55,123.5,734.12,191c13.73,24.67,26,43.86,55.16,42C947.59,222.8,921.28,365.6,941.15,401.72ZM509.64,173.56c0,5.66,0,15.38,25,13.79,7.66-.48,13.9-4.59,13.9-10.25s-6.22-10.26-13.9-10.26S509.64,164.51,509.64,173.56ZM263.7,201a5.15,5.15,0,0,0-1.65,2c-1.61,2.5-4.41,4.1-7.26,5.22-1.68.65-3.48,1.22-4.71,2.48a5.09,5.09,0,0,0,.49,7.33c1.79,1.41,4.31,1.55,6.63,1.44a42,42,0,0,0,23.86-8.92C289.85,203.59,268.54,198.42,263.7,201ZM240,214.09c-2.93-1.92-6.7-.82-9.62.68a2.63,2.63,0,0,0-1.46,1.43c-.38,1.38,1.36,2.35,2.78,2.8,2.21.69,4.62,1.36,6.81.63S242.94,216,240,214.09ZM129.6,394.64c-2.17-6.61-7.28-9.89-15-6.13-4.62,2.25-7.84,6.41-10.6,10.6-4.45,6.75-8.28,14.47-7.34,22.4a21.06,21.06,0,0,0,9,14.63,11.85,11.85,0,0,0,6.93,2.41c2.74-.09,5.22-1.57,7.35-3.23,5-3.91,8.91-9,12.73-14,2-2.6,4-5.35,4.4-8.54C137.8,406,131.59,400.71,129.6,394.64ZM939.06,598c-2,.8-4,1.82-5.13,3.56a10.27,10.27,0,0,0-1.3,4.61,90.35,90.35,0,0,0-.56,10c0,3.66.39,7.71,3.2,10.2,3.79,3.36,9.8,2.18,14.77.8,2.79-.78,5.78-1.68,7.57-3.87a12,12,0,0,0,2.16-5.67c1.2-6.68,4.88-16.8.8-20.25S946.16,595.1,939.06,598ZM659.41,856.6a11.5,11.5,0,0,0-2.57,3.18,7,7,0,0,0,3.61,9.3,14.78,14.78,0,0,0,5.75.69c16.65-.23,34.56-.84,47.86-10.39,1.62-1.17,3.3-2.81,3-4.73-.35-2.32-3.22-3.32-5.64-3.79C694.78,847.65,672.79,844.05,659.41,856.6ZM343.27,830.89c-14.49-2-37.52-4.72-37.51,7,0,4.43,20.44,8.68,23.82,9.5,10.46,2.52,20.25,6.25,30.47,10,19,7,34.15-2.44,19.14-13C366.81,835.67,355,832.46,343.27,830.89Z" transform="translate(-88.18 -140.25)"/><path class="cls-2" d="M312.63,743S141.1,786.07,131.92,633.59c0,0-12-162.58,123.53-258.47,0,0,64.94-54.23,112.94,45.3S401.57,704.89,312.63,743Z" transform="translate(-88.18 -140.25)"/><rect class="cls-3" x="435.15" y="248.38" width="395.65" height="156.75" rx="12"/><path class="cls-4" d="M277.33,366.54s-14.12-3.18-21.88,8.58c0,0,53.47,57.65,75.18,68.59,0,0,23.11,16.77,33.17,16.59,0,0,14.65,7.77,13.24-10.76,0,0-.53-19.31-8.65-35.51,0,0-17.47-30.67-27.35-40Z" transform="translate(-88.18 -140.25)"/><path class="cls-5" d="M339.92,343.24s-5.65,4.24,0,31.06,9.65,26.12,9.65,26.12,18.82,20.47,18.82,43.29c0,0-13.18-2.82-40-28l-51.06-49.17s23.91-19.35,25.72-54.27l38.75-5.73Z" transform="translate(-88.18 -140.25)"/><ellipse class="cls-6" cx="263.81" cy="156.05" rx="49.95" ry="56.12"/><path class="cls-7" d="M307,319.48s-39.53-58.71,27.53-103.06c0,0,26.59-9.41,49.88-1.18s86.35,31.53,104.94,25.65c0,0,10.82,1.65,3.3,12.7,0,0-49.42,68.71-102.59,36s-66.12-1.88-64.47,15.06S307,319.48,307,319.48Z" transform="translate(-88.18 -140.25)"/><path class="cls-2" d="M392.21,525.77s32.3,106.72,135.24,77.94l4.7,17.65s-103.36,61.41-136.85,4.71l-9.73-32Z" transform="translate(-88.18 -140.25)"/><path class="cls-8" d="M360.8,458.18" transform="translate(-88.18 -140.25)"/><path class="cls-9" d="M296.86,423.24S347.21,661.83,554.74,636" transform="translate(-88.18 -140.25)"/><path class="cls-10" d="M772,453.31c-.42,5.31-29.86,177.56-34.33,183.49C732.3,636.67,575,581,575,581s23-145.29,25-151.5c1.16-5.75,3.1-8.32,12.9-6.42,11.78,2,152,24.64,152,24.64C768.42,448.83,772.31,449.05,772,453.31Z" transform="translate(-88.18 -140.25)"/><path class="cls-11" d="M735.64,638.41c1.05,1.18,5.73,12.46-5.31,18.88C718.56,661.6,601.4,709,591.74,712.6c-3.72,1.85-6.76,2.28-15.73-1.77s-120.45-60.9-127.32-65.68c-4.57-4.22-9.2-12-9.81-16.31,8-2.89,136.41-45.72,136.41-45.72C678.64,619.89,735.64,638.41,735.64,638.41Z" transform="translate(-88.18 -140.25)"/><path class="cls-10" d="M734.34,638.59S602.71,694,596.51,697.09c-2.84,1.5-11.91,6.54-20,2.37-8.54-4.1-130.56-65.6-134.45-71.25-.61-1.24,132.28-45.15,132.28-45.15Z" transform="translate(-88.18 -140.25)"/><path class="cls-12" d="M734,638.71s-69.13,27.56-75.34,30.64c-2.84,1.5-11.9,6.54-20,2.37-8.53-4.1-137.49-56.64-141.38-62.28-.62-1.24,77.14-26.18,77.14-26.18Z" transform="translate(-88.18 -140.25)"/><path class="cls-13" d="M583.86,561.74a2.63,2.63,0,0,0,3,2.23L732,610.38a2.63,2.63,0,0,0,2.24-3l28.66-150a2.63,2.63,0,0,0-3-2.24L608,432.11a2.63,2.63,0,0,0-2.23,3Z" transform="translate(-88.18 -140.25)"/><path class="cls-13" d="M514.15,646.77c.16.75,1.79,1.42,3,2.24l23.2,12c2.2.95,2.9.22,6.26-.61L570.31,653c-.2-1.44-1.7-1.36-3-2.24l-25.19-12c-1.44.21-2.41.79-3.33.94Z" transform="translate(-88.18 -140.25)"/><path class="cls-14" d="M608,432.11,759.88,455.2a2.63,2.63,0,0,1,3,2.24l-24.46,128c-99.37,6.45-127.42-92-134-141.85l1.47-8.49A2.63,2.63,0,0,1,608,432.11Z" transform="translate(-88.18 -140.25)"/><path class="cls-15" d="M198,568.18s64,219.3,363.29,85.18" transform="translate(-88.18 -140.25)"/><path class="cls-2" d="M554.74,637.91s-1.19,11.88,5,16.14c0,0-136.76,57.37-203.08,40.87l15.92-98.13s59.52,38.92,128.7,42.45C501.33,639.24,542,637.29,554.74,637.91Z" transform="translate(-88.18 -140.25)"/><path class="cls-6" d="M554.68,648.19s-2.7-9.41.3-13c0,0,16.12-6.18,24-1S590,641,589.86,645c0,0,.77.89-.82,1.36,0,0,5.23,7.7-.12,6.76,0,0,3.18,5.88-2.41,5.18,0,0,2.35,5.7-4,4s-10.36-9.06-15.47-8.94-9-.18-9.54-1A38,38,0,0,1,554.68,648.19Z" transform="translate(-88.18 -140.25)"/><path class="cls-6" d="M529.86,615.78s-2.71-9.41.29-13c0,0,16.12-6.18,24-1s11,6.82,10.89,10.76c0,0,.76.88-.83,1.35,0,0,5.24,7.71-.11,6.77,0,0,3.17,5.88-2.42,5.18,0,0,2.36,5.7-4,4s-10.35-9.06-15.47-9-9-.17-9.53-1A35.5,35.5,0,0,1,529.86,615.78Z" transform="translate(-88.18 -140.25)"/><path class="cls-16" d="M624.85,518.13H865.36c6.34,0,12.86-5.08,14.47-11.3l43.46-167.17c1.61-6.22-2.25-11.31-8.6-11.31H674.18c-6.34,0-12.85,5.09-14.47,11.31L616.26,506.83C614.64,513.05,618.51,518.13,624.85,518.13Z" transform="translate(-88.18 -140.25)"/><path class="cls-17" d="M751.7,399.12h52l8.94-34.4c3.65-14.06-5-25.5-19.38-25.5s-29,11.44-32.65,25.5Zm46.76-6.94H760.58l7.14-27.46c2.66-10.23,13.32-18.56,23.76-18.56s16.78,8.33,14.12,18.56Z" transform="translate(-88.18 -140.25)"/><polygon class="cls-18" points="675.89 238.52 672.4 251.94 710.28 251.94 713.77 238.52 720.84 238.52 715.55 258.87 663.53 258.87 668.82 238.52 675.89 238.52"/><path class="cls-19" d="M814.52,388l-9.84,37.87a8.07,8.07,0,0,1-7.4,5.77h-56a4.36,4.36,0,0,1-4.4-5.77L746.69,388a8.08,8.08,0,0,1,7.39-5.78h56A4.36,4.36,0,0,1,814.52,388Z" transform="translate(-88.18 -140.25)"/><path class="cls-20" d="M771.49,402.7a7.26,7.26,0,0,1,6.65-5.2,3.92,3.92,0,0,1,3.94,5.2,7.31,7.31,0,0,1-4.34,4.73L776,414.06a3,3,0,0,1-2.73,2.14h0a1.62,1.62,0,0,1-1.63-2.14l1.73-6.63A3.92,3.92,0,0,1,771.49,402.7Z" transform="translate(-88.18 -140.25)"/><path class="cls-21" d="M742.64,426.27h56a8.08,8.08,0,0,0,7.4-5.78l-1.4,5.39a8.07,8.07,0,0,1-7.4,5.77h-56a4.36,4.36,0,0,1-4.4-5.77l1.4-5.39A4.36,4.36,0,0,0,742.64,426.27Z" transform="translate(-88.18 -140.25)"/><path class="cls-18" d="M762,412.74h9.89a.72.72,0,0,1,.72,1h0a1.33,1.33,0,0,1-1.22.95h-9.89a.72.72,0,0,1-.72-.95h0A1.33,1.33,0,0,1,762,412.74Z" transform="translate(-88.18 -140.25)"/><polygon class="cls-18" points="677.06 262.09 685.94 262.09 682.99 273.45 674.11 273.45 677.06 262.09"/><path class="cls-17" d="M733.47,402.34A13,13,0,0,1,745.38,393c5.24,0,8.41,4.17,7.08,9.31a13,13,0,0,1-11.92,9.31C735.3,411.65,732.13,407.48,733.47,402.34Zm14.87,0a4,4,0,0,0-4-5.28,7.39,7.39,0,0,0-6.75,5.28,4,4,0,0,0,4,5.28A7.38,7.38,0,0,0,748.34,402.34Z" transform="translate(-88.18 -140.25)"/><path class="cls-17" d="M750.6,399.5h26a2.14,2.14,0,0,1,2.16,2.84h0a4,4,0,0,1-3.64,2.84h-26Z" transform="translate(-88.18 -140.25)"/><path class="cls-22" d="M769.77,400.39h6a.51.51,0,0,1,.52.68h0a1,1,0,0,1-.87.68h-6a.51.51,0,0,1-.52-.68h0A1,1,0,0,1,769.77,400.39Z" transform="translate(-88.18 -140.25)"/><path class="cls-22" d="M765.69,400.39h1.61a.51.51,0,0,1,.52.68h0a1,1,0,0,1-.87.68h-1.62a.52.52,0,0,1-.52-.68h0A1,1,0,0,1,765.69,400.39Z" transform="translate(-88.18 -140.25)"/><path class="cls-23" d="M670.33,469.41H839a13.39,13.39,0,0,0,12.22-9.55h0c1.37-5.26-1.9-9.55-7.26-9.55H675.29a13.38,13.38,0,0,0-12.22,9.55h0C661.7,465.11,665,469.41,670.33,469.41Z" transform="translate(-88.18 -140.25)"/><path class="cls-24" d="M712.21,499.71h69.48a13.39,13.39,0,0,0,12.22-9.56h0c1.37-5.25-1.9-9.55-7.26-9.55H717.17a13.41,13.41,0,0,0-12.23,9.55h0C703.58,495.41,706.85,499.71,712.21,499.71Z" transform="translate(-88.18 -140.25)"/><path d="M804,454.1l2.63,5.1,0,.09-6.08-.82-.72,2.77,6.48-.73,0,.08-5.27,4.9,2.24,1.47,4-5.72h.08l1.21,5.76,2.76-1.47-2.66-5,0-.08,6,.77.72-2.77-6.32.77,0-.08,5.21-5-2.17-1.42L808,458.43h-.08l-1.05-5.72Z" transform="translate(-88.18 -140.25)"/><path d="M770.46,454.1l2.63,5.1,0,.09-6.08-.82-.72,2.77,6.48-.73,0,.08-5.27,4.9L769.7,467l4-5.72h.08L775,467l2.76-1.47-2.66-5,0-.08,6,.77.72-2.77-6.32.77,0-.08,5.21-5-2.17-1.42-4.06,5.67h-.08l-1-5.72Z" transform="translate(-88.18 -140.25)"/><path d="M737.24,454.1l2.63,5.1,0,.09-6.07-.82-.72,2.77,6.47-.73,0,.08-5.27,4.9,2.24,1.47,4-5.72h.08l1.21,5.76,2.75-1.47-2.66-5,0-.08,6,.77.73-2.77-6.33.77,0-.08,5.2-5-2.17-1.42-4,5.67h-.08l-1.06-5.72Z" transform="translate(-88.18 -140.25)"/><path d="M703.14,454.1l2.63,5.1,0,.09-6.08-.82-.72,2.77,6.48-.73,0,.08-5.27,4.9,2.24,1.47,4-5.72h.08l1.21,5.76,2.76-1.47-2.66-5,0-.08,6,.77.72-2.77-6.32.77,0-.08,5.21-5-2.17-1.42-4.06,5.67h-.08l-1-5.72Z" transform="translate(-88.18 -140.25)"/></svg>